<svg width="24" height="31" viewBox="0 0 24 31" fill="none" xmlns="http://www.w3.org/2000/svg">
<path d="M5.20569 24.9464C5.00637 24.7148 4.74748 24.3459 4.56459 24.0907C1.40862 19.6863 0.187619 14.6468 0.0134918 9.2976C-0.00560455 8.485 -0.00442256 7.67202 0.0169961 6.85948C0.0378341 6.24598 -0.0301338 5.4341 0.649228 5.13349C1.01301 4.97251 1.45296 4.92447 1.83944 4.80829C5.2421 3.78549 8.53721 2.30605 11.4255 0.220792C12.1314 -0.289046 12.5563 0.19108 13.1331 0.585385C13.4812 0.820264 13.8341 1.0482 14.1914 1.26906C14.7205 1.59511 15.3687 1.9715 15.9233 2.26087C17.5425 3.11705 19.2278 3.84178 20.9628 4.42809C21.4202 4.57775 21.8811 4.71675 22.3452 4.84497C23.8777 5.25881 23.9268 5.24749 23.9795 6.85548C24.0848 10.0741 23.787 13.1369 23.0418 16.2674C22.8926 16.7588 22.7644 17.2429 22.6099 17.7385C22.2666 18.7561 21.9471 19.6172 21.4841 20.5944C19.8871 23.9279 17.5408 26.8467 14.6287 29.1229C13.9726 29.6309 13.2042 30.1916 12.4827 30.6054C12.3004 30.7101 11.9334 30.7854 11.7356 30.6917C10.7657 30.232 9.80667 29.4563 8.95573 28.7955C8.88741 28.7424 8.2907 28.2261 8.29172 28.2266C7.11073 27.182 6.19047 26.1805 5.20569 24.9464Z" fill="#0D7377"/>
<path d="M10.3339 11.7933C10.1708 11.8943 9.72543 12.1472 9.6093 12.2873C9.228 12.747 8.93749 14.2186 8.57907 14.5924C8.46286 14.7142 8.30249 14.784 8.13417 14.7862C7.96689 14.7888 7.8092 14.7205 7.69201 14.6019C7.56972 14.4782 7.49634 14.3009 7.50553 14.1261C7.51648 13.9179 8.29497 11.7772 8.43412 11.5239C8.50822 11.389 8.61861 11.2754 8.73265 11.1733C9.01169 10.9236 9.31657 10.695 9.60733 10.4585C10.2392 9.9447 10.8655 9.33947 11.7406 9.38964C13.3944 9.48448 13.2424 11.3326 14.262 12.1691C14.7438 12.5643 16.0588 12.911 16.3192 13.2164C16.4231 13.3384 16.4814 13.494 16.4642 13.6551C16.4457 13.8278 16.3526 14.011 16.2166 14.1204C16.0868 14.2246 15.9184 14.2616 15.7548 14.2433C15.4579 14.2102 13.7927 13.5727 13.5358 13.3927C13.2951 13.2239 13.1176 12.9763 12.9347 12.75L12.6084 14.54C13.1425 15.1374 13.7971 15.7572 14.2887 16.3919C14.4009 16.5366 14.5726 17.0349 14.6518 17.235L15.2139 18.6445C15.6648 18.5126 16.1793 18.326 16.6412 18.1815C17.4202 17.9378 18.2081 17.7237 19.0033 17.5395C19.6038 17.4015 20.2075 17.2785 20.8142 17.1709C21.2503 17.0911 21.7738 17.0162 22.191 16.8771C22.4442 16.7811 22.6718 16.6399 22.8644 16.4493C22.9183 16.3958 22.9803 16.2928 23.0417 16.2673C22.8924 16.7587 22.7643 17.2428 22.6098 17.7384C22.2665 18.756 21.9469 19.6171 21.4839 20.5943C19.887 23.9278 17.5407 26.8466 14.6285 29.1228C13.9725 29.6308 13.2041 30.1915 12.4825 30.6053C12.3003 30.71 11.9333 30.7853 11.7355 30.6916C10.7656 30.2319 9.80655 29.4562 8.95561 28.7954C8.88729 28.7423 8.29057 28.226 8.29159 28.2265C7.1106 27.1819 6.19035 26.1804 5.20557 24.9463C5.7362 24.3294 6.30942 23.8019 6.92438 23.2716C9.00249 21.4793 11.2551 20.2394 13.7753 19.1914C13.6368 18.8215 13.1404 17.5957 12.9476 17.3336C12.7711 17.0938 12.4952 16.8964 12.2696 16.7019L11.3258 15.8883C11.1757 16.3396 10.9787 16.7956 10.8165 17.2449C10.6136 17.8076 10.4784 18.2692 10.094 18.7374C9.56329 19.3837 9.07209 20.0725 8.52688 20.7071C8.42145 20.8299 8.21155 20.8927 8.0547 20.885C7.87557 20.8767 7.70744 20.7963 7.58836 20.6621C7.57464 20.6451 7.56089 20.6279 7.54716 20.6107C7.19175 20.1172 7.69357 19.658 7.96077 19.2721C8.32412 18.7475 8.73363 18.2613 9.02671 17.6936C9.14808 17.4508 9.30486 16.7647 9.37249 16.4856C9.56375 15.69 9.74163 14.8914 9.90605 14.09C10.0131 13.5818 10.3101 12.3174 10.3327 11.8222L10.3339 11.7933Z" fill="#DDEDEE"/>
<path d="M8.29175 28.2267C8.65914 27.5495 9.06093 26.8914 9.49555 26.2553C12.6871 21.5867 17.0687 18.7814 22.61 17.7386C22.2666 18.7563 21.9471 19.6174 21.4841 20.5946C19.8871 23.9281 17.5408 26.8468 14.6287 29.1231C13.9727 29.6311 13.2042 30.1917 12.4827 30.6056C12.3004 30.7103 11.9334 30.7856 11.7356 30.6918C10.7657 30.2321 9.80671 29.4565 8.95577 28.7957C8.88745 28.7426 8.29073 28.2263 8.29175 28.2267Z" fill="#0D7377"/>
<path d="M12.1177 5.80293C12.963 5.7198 13.7165 6.33576 13.8032 7.18078C13.8899 8.02581 13.2772 8.78189 12.4325 8.87209C11.583 8.96285 10.8214 8.34562 10.7342 7.49557C10.6471 6.64554 11.2674 5.88655 12.1177 5.80293Z" fill="#DDEDEE"/>
</svg>
